<svg width="480" height="480" viewBox="0 0 480 480" fill="none" xmlns="http://www.w3.org/2000/svg">
<rect width="480" height="480" rx="20" fill="#A5D6A7"/>
<path d="M224.04 57.2281C215.557 62.3293 196.586 73.4486 181.913 82.046C149.758 100.846 136.633 108.526 98.5178 130.937L69.2866 148.131L69.1719 240.066L69 331.944L79.2023 337.962C92.6142 345.872 106.829 354.297 127.749 366.62C137.206 372.18 157.095 383.93 171.882 392.699C235.331 430.241 239.229 432.534 240.146 432.534C240.834 432.534 261.066 420.67 318.898 386.337C337.641 375.161 366.012 358.367 381.946 349.024C406.706 334.409 410.891 331.715 410.833 330.626C410.833 329.938 410.776 288.556 410.719 238.634L410.604 147.96L364.636 120.906C339.303 106.061 310.759 89.2678 301.13 83.5936C257.283 57.8586 240.26 47.9429 239.917 48.0003C239.687 48.0576 232.58 52.1843 224.04 57.2281ZM312.25 120.734C313.969 131.682 317.695 141.655 322.566 148.475C330.075 159.022 342.226 164.868 360.739 166.874C365.21 167.39 367.273 168.249 363.949 168.307C360.51 168.307 348.301 170.542 344.404 171.803C325.891 178.05 316.032 191.864 311.906 217.312L311.218 221.897L310.702 218.745C309.785 212.899 306.862 201.665 305.142 197.538C302.563 191.348 299.583 186.82 295.112 182.349C287.317 174.554 277.917 170.657 262.442 168.708C256.882 168.02 256.424 167.848 258.43 167.504C259.691 167.275 263.703 166.53 267.314 165.899C293.507 161.2 304.97 149.335 309.842 121.881C310.587 117.811 311.218 114.602 311.275 114.888C311.332 115.117 311.791 117.754 312.25 120.734ZM113.993 178.853C120.011 182.292 135.085 191.061 147.523 198.398C159.961 205.677 185.81 220.751 205.011 231.928L239.802 252.218V283.971C239.802 311.482 239.687 315.666 238.942 315.437C238.484 315.208 225.702 307.699 210.456 298.644C182.944 282.308 161.394 269.47 136.633 254.854C129.526 250.67 118.406 244.079 111.872 240.124L99.9507 233.017V201.722V170.485L101.556 171.516C102.415 172.09 108.032 175.357 113.993 178.853ZM379.252 305.178C378.679 305.579 363.891 314.405 346.41 324.722C285.999 360.373 242.381 386.223 241.865 386.738C241.521 387.025 241.063 387.254 240.834 387.254C240.604 387.254 240.375 371.722 240.375 352.693L240.432 318.188L242.84 317.099C245.419 315.896 248.858 313.89 297.978 284.658C329.788 265.744 366.069 244.251 375.068 238.977L379.94 236.112L380.112 270.272C380.226 302.426 380.169 304.49 379.252 305.178Z" fill="#263238"/>
</svg>
